<svg width="35" height="35" viewBox="0 0 35 35" fill="none" xmlns="http://www.w3.org/2000/svg">
<path d="M21.4375 9.18752C21.1703 9.46013 21.0206 9.82663 21.0206 10.2084C21.0206 10.5901 21.1703 10.9566 21.4375 11.2292L23.7708 13.5625C24.0434 13.8297 24.4099 13.9794 24.7916 13.9794C25.1734 13.9794 25.5399 13.8297 25.8125 13.5625L31.3104 8.06461C32.0437 9.68509 32.2657 11.4906 31.9469 13.2404C31.6281 14.9903 30.7835 16.6015 29.5258 17.8592C28.2681 19.1169 26.6569 19.9614 24.9071 20.2803C23.1572 20.5991 21.3517 20.3771 19.7312 19.6438L9.65414 29.7209C9.07398 30.301 8.28711 30.6269 7.46664 30.6269C6.64617 30.6269 5.8593 30.301 5.27914 29.7209C4.69898 29.1407 4.37305 28.3538 4.37305 27.5334C4.37305 26.7129 4.69898 25.926 5.27914 25.3459L15.3562 15.2688C14.6229 13.6483 14.4009 11.8428 14.7197 10.0929C15.0386 8.34306 15.8831 6.73191 17.1408 5.4742C18.3985 4.21648 20.0097 3.37193 21.7596 3.0531C23.5094 2.73427 25.3149 2.9563 26.9354 3.6896L21.4375 9.18752Z" fill="#EC221F" stroke="#EC221F" stroke-width="3.5" stroke-linecap="round" stroke-linejoin="round"/>
</svg>
