<svg width="25" height="28" viewBox="0 0 25 28" fill="none" xmlns="http://www.w3.org/2000/svg">
<path d="M23.8333 26.75V23.8333C23.8333 22.2862 23.2187 20.8025 22.1248 19.7085C21.0308 18.6146 19.5471 18 18 18H6.33333C4.78624 18 3.30251 18.6146 2.20854 19.7085C1.11458 20.8025 0.5 22.2862 0.5 23.8333V26.75" fill="#EC221F"/>
<path d="M12.1667 12.1667C15.3883 12.1667 18 9.55499 18 6.33333C18 3.11167 15.3883 0.5 12.1667 0.5C8.94501 0.5 6.33333 3.11167 6.33333 6.33333C6.33333 9.55499 8.94501 12.1667 12.1667 12.1667Z" fill="#EC221F"/>
<path d="M23.8333 26.75V23.8333C23.8333 22.2862 23.2187 20.8025 22.1248 19.7085C21.0308 18.6146 19.5471 18 18 18H6.33333C4.78624 18 3.30251 18.6146 2.20854 19.7085C1.11458 20.8025 0.5 22.2862 0.5 23.8333V26.75M18 6.33333C18 9.55499 15.3883 12.1667 12.1667 12.1667C8.94501 12.1667 6.33333 9.55499 6.33333 6.33333C6.33333 3.11167 8.94501 0.5 12.1667 0.5C15.3883 0.5 18 3.11167 18 6.33333Z" stroke="#EC221F" stroke-linecap="round" stroke-linejoin="round"/>
</svg>
