<svg width="76" height="76" viewBox="0 0 76 76" fill="none" xmlns="http://www.w3.org/2000/svg">
<g filter="url(#filter0_d_3019_59)">
<circle cx="37.9999" cy="24.9999" r="19.9999" fill="#1A202C"/>
</g>
<path d="M38 5C26.9542 5 18 13.9542 18 25C18 36.0458 26.9542 45 38 45C49.0458 45 58 36.0458 58 25C58 13.9542 49.0458 5 38 5ZM42.7375 18.8208H39.7312C39.375 18.8208 38.9792 19.2896 38.9792 19.9125V22.0833H42.7396L42.1708 25.1792H38.9792V34.4729H35.4312V25.1792H32.2125V22.0833H35.4312V20.2625C35.4312 17.65 37.2437 15.5271 39.7312 15.5271H42.7375V18.8208Z" fill="white"/>
<defs>
<filter id="filter0_d_3019_59" x="0" y="0" width="76" height="76" filterUnits="userSpaceOnUse" color-interpolation-filters="sRGB">
<feFlood flood-opacity="0" result="BackgroundImageFix"/>
<feColorMatrix in="SourceAlpha" type="matrix" values="0 0 0 0 0 0 0 0 0 0 0 0 0 0 0 0 0 0 127 0" result="hardAlpha"/>
<feOffset dy="13"/>
<feGaussianBlur stdDeviation="9"/>
<feColorMatrix type="matrix" values="0 0 0 0 0.0658854 0 0 0 0 0.0730469 0 0 0 0 0.1375 0 0 0 0.08 0"/>
<feBlend mode="normal" in2="BackgroundImageFix" result="effect1_dropShadow_3019_59"/>
<feBlend mode="normal" in="SourceGraphic" in2="effect1_dropShadow_3019_59" result="shape"/>
</filter>
</defs>
</svg>
