<svg width="76" height="76" viewBox="0 0 76 76" fill="none" xmlns="http://www.w3.org/2000/svg">
<g filter="url(#filter0_d_3019_62)">
<circle cx="37.9999" cy="24.9999" r="19.9999" fill="#1A202C"/>
</g>
<path d="M44.25 25C44.25 26.6576 43.5915 28.2473 42.4194 29.4194C41.2473 30.5915 39.6576 31.25 38 31.25C36.3424 31.25 34.7527 30.5915 33.5806 29.4194C32.4085 28.2473 31.75 26.6576 31.75 25C31.75 24.6437 31.7875 24.2958 31.8521 23.9583H29.6667V32.2854C29.6667 32.8646 30.1354 33.3333 30.7146 33.3333H45.2875C45.5651 33.3328 45.8311 33.2221 46.0271 33.0257C46.2232 32.8292 46.3333 32.563 46.3333 32.2854V23.9583H44.1479C44.2125 24.2958 44.25 24.6437 44.25 25ZM38 29.1667C38.5473 29.1665 39.0892 29.0586 39.5948 28.849C40.1004 28.6394 40.5598 28.3323 40.9467 27.9452C41.3336 27.5581 41.6405 27.0986 41.8498 26.5929C42.0591 26.0872 42.1668 25.5452 42.1667 24.9979C42.1665 24.4506 42.0586 23.9087 41.849 23.4031C41.6394 22.8975 41.3323 22.4381 40.9452 22.0512C40.5581 21.6643 40.0986 21.3574 39.5929 21.1481C39.0872 20.9388 38.5452 20.8311 37.9979 20.8312C36.8926 20.8315 35.8326 21.2709 35.0512 22.0527C34.2698 22.8345 33.831 23.8947 33.8312 25C33.8315 26.1053 34.2709 27.1653 35.0527 27.9467C35.8345 28.7281 36.8947 29.1669 38 29.1667ZM43 20.625H45.4979C45.6639 20.625 45.8231 20.5592 45.9406 20.4421C46.0581 20.3249 46.1244 20.166 46.125 20V17.5021C46.125 17.3358 46.0589 17.1763 45.9413 17.0587C45.8237 16.9411 45.6642 16.875 45.4979 16.875H43C42.8337 16.875 42.6742 16.9411 42.5566 17.0587C42.439 17.1763 42.3729 17.3358 42.3729 17.5021V20C42.375 20.3437 42.6562 20.625 43 20.625ZM38 5C32.6957 5 27.6086 7.10714 23.8579 10.8579C20.1071 14.6086 18 19.6957 18 25C18 30.3043 20.1071 35.3914 23.8579 39.1421C27.6086 42.8929 32.6957 45 38 45C40.6264 45 43.2272 44.4827 45.6537 43.4776C48.0802 42.4725 50.285 40.9993 52.1421 39.1421C53.9993 37.285 55.4725 35.0802 56.4776 32.6537C57.4827 30.2272 58 27.6264 58 25C58 22.3736 57.4827 19.7728 56.4776 17.3463C55.4725 14.9198 53.9993 12.715 52.1421 10.8579C50.285 9.00069 48.0802 7.5275 45.6537 6.52241C43.2272 5.51732 40.6264 5 38 5ZM48.4167 33.1021C48.4167 34.375 47.375 35.4167 46.1021 35.4167H29.8979C28.625 35.4167 27.5833 34.375 27.5833 33.1021V16.8979C27.5833 15.625 28.625 14.5833 29.8979 14.5833H46.1021C47.375 14.5833 48.4167 15.625 48.4167 16.8979V33.1021Z" fill="white"/>
<defs>
<filter id="filter0_d_3019_62" x="0" y="0" width="76" height="76" filterUnits="userSpaceOnUse" color-interpolation-filters="sRGB">
<feFlood flood-opacity="0" result="BackgroundImageFix"/>
<feColorMatrix in="SourceAlpha" type="matrix" values="0 0 0 0 0 0 0 0 0 0 0 0 0 0 0 0 0 0 127 0" result="hardAlpha"/>
<feOffset dy="13"/>
<feGaussianBlur stdDeviation="9"/>
<feColorMatrix type="matrix" values="0 0 0 0 0.0658854 0 0 0 0 0.0730469 0 0 0 0 0.1375 0 0 0 0.08 0"/>
<feBlend mode="normal" in2="BackgroundImageFix" result="effect1_dropShadow_3019_62"/>
<feBlend mode="normal" in="SourceGraphic" in2="effect1_dropShadow_3019_62" result="shape"/>
</filter>
</defs>
</svg>
