<svg width="33" height="33" viewBox="0 0 33 33" fill="none" xmlns="http://www.w3.org/2000/svg">
<path d="M30.7535 23.5085V27.8835C30.7552 28.2896 30.672 28.6916 30.5092 29.0638C30.3465 29.4359 30.1079 29.77 29.8086 30.0445C29.5093 30.3191 29.156 30.5281 28.7713 30.6583C28.3865 30.7884 27.9788 30.8367 27.5743 30.8001C23.0868 30.3125 18.7762 28.7791 14.9889 26.3231C11.4653 24.084 8.47795 21.0966 6.23892 17.5731C3.7743 13.7686 2.24052 9.43701 1.76184 4.92931C1.72539 4.52603 1.77332 4.11958 1.90257 3.73584C2.03181 3.3521 2.23954 2.99948 2.51254 2.70042C2.78553 2.40136 3.1178 2.16243 3.4882 1.99882C3.85859 1.83521 4.259 1.75052 4.66392 1.75014H9.03892C9.74666 1.74318 10.4328 1.9938 10.9694 2.45529C11.506 2.91679 11.8565 3.55767 11.9556 4.25847C12.1402 5.65857 12.4827 7.03328 12.9764 8.35639C13.1726 8.87836 13.2151 9.44564 13.0988 9.99101C12.9825 10.5364 12.7123 11.037 12.3202 11.4335L10.4681 13.2856C12.5441 16.9366 15.5671 19.9595 19.2181 22.0356L21.0702 20.1835C21.4667 19.7914 21.9673 19.5212 22.5126 19.4049C23.058 19.2886 23.6253 19.331 24.1473 19.5272C25.4704 20.0209 26.8451 20.3634 28.2452 20.5481C28.9536 20.648 29.6005 21.0048 30.063 21.5507C30.5255 22.0965 30.7713 22.7933 30.7535 23.5085Z" fill="#EC221F" stroke="#EC221F" stroke-width="3.5" stroke-linecap="round" stroke-linejoin="round"/>
</svg>
