<svg width="100" height="100" viewBox="0 0 100 100" fill="none" xmlns="http://www.w3.org/2000/svg">
<path d="M61.2501 26.25C60.4867 27.0288 60.0591 28.076 60.0591 29.1666C60.0591 30.2573 60.4867 31.3044 61.2501 32.0833L67.9168 38.75C68.6957 39.5134 69.7428 39.941 70.8335 39.941C71.9241 39.941 72.9713 39.5134 73.7501 38.75L89.4585 23.0416C91.5536 27.6716 92.188 32.8301 91.277 37.8297C90.3661 42.8294 87.9531 47.4326 84.3596 51.0261C80.7662 54.6196 76.1629 57.0326 71.1632 57.9435C66.1636 58.8545 61.0051 58.2201 56.3751 56.125L27.5835 84.9166C25.9259 86.5742 23.6777 87.5055 21.3335 87.5055C18.9893 87.5055 16.7411 86.5742 15.0835 84.9166C13.4259 83.259 12.4946 81.0108 12.4946 78.6666C12.4946 76.3224 13.4259 74.0742 15.0835 72.4166L43.8751 43.625C41.78 38.995 41.1456 33.8365 42.0566 28.8369C42.9675 23.8372 45.3805 19.2339 48.974 15.6405C52.5674 12.047 57.1707 9.63399 62.1704 8.72305C67.17 7.8121 72.3285 8.44648 76.9585 10.5416L61.2501 26.25Z" stroke="#EC221F" stroke-width="4" stroke-linecap="round" stroke-linejoin="round"/>
</svg>
